/* XPM */
static char *result[] = {
/* columns rows colors chars-per-pixel */
"64 64 243 2 ",
"   c #000000",
".  c #1E180A",
"X  c gray12",
"o  c #1E1712",
"O  c #221A0C",
"+  c #27190B",
"@  c #241C13",
"#  c #2B1D13",
"$  c #291C19",
"%  c #331D14",
"&  c #331E1A",
"*  c #351A18",
"=  c #33190F",
"-  c #2B2314",
";  c #2C231B",
":  c #2C2C1D",
">  c #252119",
",  c #332314",
"<  c #35241C",
"1  c #3B251B",
"2  c #332B1D",
"3  c #3D2A1D",
"4  c #3C2516",
"5  c #2E311D",
"6  c #36331F",
"7  c #29220F",
"8  c #341D20",
"9  c #2C2521",
"0  c #2D2C24",
"q  c #2E2D29",
"w  c #272521",
"e  c #342521",
"r  c #3B2523",
"t  c #332D24",
"y  c #3C2B24",
"u  c #342F2A",
"i  c #3C2D29",
"p  c #372728",
"a  c #2F3125",
"s  c #353224",
"d  c #3A3424",
"f  c #34332C",
"g  c #3B332B",
"h  c #3C3A2C",
"j  c #3C3B26",
"k  c #363631",
"l  c #3C3631",
"z  c #3B3B34",
"x  c #3B3B3B",
"c  c #373831",
"v  c #45291E",
"b  c #42251B",
"n  c #432C23",
"m  c #472A26",
"M  c #443125",
"N  c #42342B",
"B  c #4B332B",
"V  c #433B2C",
"C  c #473A2A",
"Z  c #54392A",
"A  c #443C32",
"S  c #4B3C35",
"D  c #453935",
"F  c #523C33",
"G  c #583E34",
"H  c #583A3B",
"J  c #482E2F",
"K  c #623F32",
"L  c #3F4037",
"P  c #4C412D",
"I  c #5A432D",
"U  c #424134",
"Y  c #4C4334",
"T  c #45443B",
"R  c #4B443A",
"E  c #4B4A3E",
"W  c #4A4937",
"Q  c #534335",
"!  c #5A4335",
"~  c #55443C",
"^  c #5C453B",
"/  c #5B4B3D",
"(  c #564B38",
")  c #5E523D",
"_  c #4E513E",
"`  c #64462D",
"'  c #644C34",
"]  c #634B3C",
"[  c #6C4D3B",
"{  c #654436",
"}  c #734B39",
"|  c #6A523C",
" . c #66533C",
".. c #73533E",
"X. c #474747",
"o. c #4C4C43",
"O. c #4D4D4D",
"+. c #4A4842",
"@. c #524D43",
"#. c #5C4C43",
"$. c #594B46",
"%. c #4E5043",
"&. c #535245",
"*. c #5B5344",
"=. c #56554B",
"-. c #5B554A",
";. c #5C5B4C",
":. c #56584D",
">. c #555555",
",. c #5D5D52",
"<. c #5F5F5F",
"1. c #5B5751",
"2. c #634D43",
"3. c #664943",
"4. c #754E43",
"5. c #645444",
"6. c #6B5244",
"7. c #6C5A44",
"8. c #64544A",
"9. c #6C554A",
"0. c #635C4C",
"q. c #6B5C4B",
"w. c #605942",
"e. c #735543",
"r. c #755848",
"t. c #625E53",
"y. c #6C5C54",
"u. c #6B5453",
"i. c #745B52",
"p. c #775B56",
"a. c #5E614E",
"s. c #5E6154",
"d. c #67624B",
"f. c #79654C",
"g. c #646355",
"h. c #696455",
"j. c #6B6B56",
"k. c #65655A",
"l. c #6A665A",
"z. c #66695B",
"x. c #6C6B5C",
"c. c #676855",
"v. c #746353",
"b. c #7C6A54",
"n. c #7B655B",
"m. c #726D5E",
"M. c #796758",
"N. c #73735E",
"B. c #7C705F",
"V. c #676767",
"C. c #6E6E61",
"Z. c #6A6B69",
"A. c #736E62",
"S. c #7B6E63",
"D. c #7D6E6A",
"F. c #6F7162",
"G. c #747364",
"H. c #7A7566",
"J. c #777865",
"K. c #757569",
"L. c #797669",
"P. c #7A7B6B",
"I. c #777A69",
"U. c #7D7D71",
"Y. c #787878",
"T. c #825E4A",
"R. c #86644C",
"E. c #866A4C",
"W. c #866C54",
"Q. c #836C5C",
"!. c #876A58",
"~. c #89735A",
"^. c #93755D",
"/. c #94785B",
"(. c #916B58",
"). c #856A64",
"_. c #837364",
"`. c #8B7363",
"'. c #8B7A64",
"]. c #85746B",
"[. c #88796A",
"{. c #917462",
"}. c #957A69",
"|. c #837E71",
" X c #897371",
".X c #957E72",
"XX c #916F62",
"oX c #7E806C",
"OX c #7F8172",
"+X c #8A836D",
"@X c #96826B",
"#X c #838273",
"$X c #8B8A7C",
"%X c #878678",
"&X c #9A8878",
"*X c #9F917A",
"=X c #A68D7B",
"-X c #A59279",
";X c #838383",
":X c #8F8F8F",
">X c #8C8B83",
",X c #988B82",
"<X c #939387",
"1X c #9B9B9B",
"2X c #9C9990",
"3X c #8E9082",
"4X c #A59688",
"5X c #B19C88",
"6X c #A9A28E",
"7X c #A8A69A",
"8X c #B3A697",
"9X c #BBAB95",
"0X c gray67",
"qX c #ADACA2",
"wX c #BCBAAC",
"eX c #B9B6A5",
"rX c #B7B7B7",
"tX c #BDBDB3",
"yX c #B9AAA3",
"uX c #C2B399",
"iX c #C2B9AE",
"pX c #C2BEB2",
"aX c #BFC0AE",
"sX c #BFC0B1",
"dX c #C4C3B4",
"fX c #C5C5BA",
"gX c #CAC7BC",
"hX c #CBCABC",
"jX c #C9CBB8",
"kX c #CDCDBA",
"lX c gray78",
"zX c #CCCCC1",
"xX c #D3CFC3",
"cX c #D3D3C4",
"vX c #D5D4CA",
"bX c #DADACC",
"nX c #D7D8C8",
"mX c #DFDFDF",
"MX c #D3D3D3",
"NX c #E3DFD5",
"BX c #E8E8DA",
"VX c #EFEFEF",
"CX c #F3F0E4",
/* pixels */
"X x X x X x X x X x X x X x X x X x X x X x X x X x X x $ x X x X x X x X x X x X L X L X x X x X x X x X x X x X x X x X x X x ",
">.>.>.O.>.O.>.O.>.O.X.MXmXmXmXMXmXMXmXmXmXMXmXMXmXmXmXX t.A.g.x.,.=.<X$XlXMXrXlX0X;X>.X X.X.X.X.X.X.X.X.X.X.>.>.>.O.>.O.>.>.>.O.",
">.>.>.>.>.>.>.>.>.>.X.mXMXlXMXrXMXMXMXlXMXMXrXMXMX=.o.C.vXCXCXCXgXwXdXdXJ.F.$X%X0XO.L X x Z.:X:X;X:X:X:XY.Z.Z.X.X.X.O.X.X.X.O.X.",
":X:X;X:X:X:X;X:Xw >.O.mXlXlXrXMXrXlXlXrXlXlXq =.C.k.gXnXA.A.%X$Xl.U.;.g.kXbXzXF.L L x X x :XMXmXmXmXMXmXrXrX0X:X;X:X:X:X;X:X:X:X",
"MXMXMXMXrX0X:X;XX >.X.mXMX0X0X1X0X:X0X0XK.g.%XU P.fXx.G.K.P.K.U.l.J.c.z.s.P.s.dXL BXBXbXf ;XmXmXrXlXrXMXmXmXmXMXmXMXlXMXMXMXlXMX",
"0X0X0X0X1X0XY.Y.X >.X.VXrX1X0X0X0X0X&.+.#XBXBXJ.a x.#X|.L.L.K.%Xg.G.z.x.c.G.N.L eXbXOX<XbXcXs tX0X:X0X:X0X0X1X:X:X0X:X0X;X0X:X1X",
"rX1X1X1X0X:XY.Z.X X.X.VXMX0X;X0X+.=.K.hXbX#XJ.dXs %X#XoXP.K.C.#XC.x.z.z.N.c.a.5 jXOXx.J.G.J.kXE :X0X;X1X;X:X:X0X;X:X1X:X0X1X:X1X",
"rX0X;XrX;X1XV.>.X x X.VXlX:X1Xk C.xXbXJ.P.J.%Xh.dX: x.F.L.U.K.L.#Xs.z.g.N._ 5 aXeXG.OXOXN.%Xc.dXa ;X1XY.0X1XY.:X0X;X0X0X:XY.0X1X",
"1X0X0X:X1XY.X.X.X X O.lXrX;.&.x.s hXI.P.x.a.P.x.cX: 0 :.K.,.K.,.Y.V.C.=.0.d 6 dX;.A.J.#XN.m.J.5 z.P.;X;X1XZ.1X:X0X:X:XY.0X0XY.:X",
":X:X;X:XZ.>.X.X.X x X.0X&.$XnXkXj P.P.#XP.x.%XP.J.dXg :.l.9 z s U f t h.g.; d.pXm.%Xg.H.H.J.P.5 a.bXF.:X1X1X1X;X:X0X:X0X0X;X0X:X",
"Z.Z.Y.Y.>.X.x x X X O.o.F.cXnXx.P.U I.oXP.G.x.g.g.tXs A A @         U d f 0 t.tX+XH.h.m.H.x.V J.cX$XbX%.:X;X:XY.Z.Z.<.<.V.<.V.<.",
">.>.X.X.X.X X X X x +.z.jXJ.J.J.x.s z.G.J.x.l.x.h s   Y s >         ( 3 ;   k A |.v.m.v.H.;.: nXx.J.OXcXX.>.>.>.>.X.O.X.O.X.X.X.",
"X X X X X x X x X k x.dX%XG.L.A.A.K.d H.l.G.s d       Y M O         Q M @       C 3 B.0.H.V nXm.F.J.I.K.zXE L x x x x X x X x X ",
"X x X x X X x X X.=.hXx.x.P.C.C.G.J.h ;.s j @ h V *.m.( 6 + C Q 5.v.^ M # S $.8.y.~ d y h.#XdXz.N.OX%XG.F.vXL X X X X X X X X X ",
"x x x x x x x x T qXzXL.K.G.P.K.x.g.G.W m.s *.;.*.*.( _.6 5./ *.5.5.].B ] ] 6.6.8.S.A @.d m.P.l.G.s.K.G.z.Y.sXx x x x x x x x x ",
">.O.x x x x x k l l.0.l.m.K.C.G.x.s.f s h . V h S A C V 7 N N V V S S = B G B B ~ A o g f e l.k.K.C.C.G.s.V.lXk X.X.X.X.X.X.X.x ",
"1X1X:X1X:X1XX.vXg f -.h.m.y.x.C.z.0 @ w @ A - O 9 ; O - Y 2 - $ w 8 8 J * e e ; e 9 D ; o > x k.=.k.z.g.,.=.z f %.1X1X:X1X1X1X1X",
"MXlXMXMXlXMX+.pXgXL.2 g S.=.;.x.a       8.Q -         d.P -         u.H $         y.F #       z K.k.z.;.s >XcXbX=.MXmXmXmXMXmXMX",
"0X1X:X0X:X0XO.fXl.xXL.].N @.=.h         6.Z y         q.Y 2         i.F p         9.G %         6 ;.0.h bXbXC.x.cX=.rXrX0XrXrXrX",
"0X:X1X:X0X=.zXU.P.l.gXNXL.i A @         r.K <         Q.~ 2         9.~ p         r.Z %         ) C j cX$XU.%XC.jXT 0X:X1X;X1X1X",
"0X:X:X0X;X>.wXA.F.x.g.%XxXV D -         r.{ *         n./ -         M.Y 2         p.{ =         &.V d z.#XG.|.K.jX,.:X1XY.;X:X;X",
"0X:X0X:X0XvXU.K.#Xx.G.P.V.t A @ Y / b.=Xp.#.1 ] n.Q.=X_.) 4  .d.'.*Xv._ 7 ) q.~.&Xv.] % ] ' q.[.*.j s c.G.#X|.A.#XbXX.:X1X;X1X1X",
":X0XY.Y.=.mX<XP.J.x.#XL.g J.i -.p.9.T.T.,X=.b.W.!.!.H.4X/ B.~.~.R.f.6X_ b.b.~.R.).7X~ Q.!.T.E.r.+XU :.j N.|.m.h.K.nX>.1XY.Y.:X:X",
":X;X;XY.&.fX|.P.x.c.0.m.z V O V ~ G ` ! *.> ! | 6./ *._ > *.] ] ' ' &.- I ' ` { $.$.8 3.` ` } Z Y $ A t g.h.,.k.V.K.vX=.Y.Y.:X:X",
":X:X0X0Xf K.J.P.j.*.x.0.d - V 2 # % y p p / y 1 g ; g u -.d n n n n C | b n r N y N 3.r r r & < * S ; y y.A.1.1.V.K.sXL 0X:X0X:X",
"1X0X;X:XzX0 s h ;.W x.s   0.S -         ).4.3         H.8.2         ^.} B          Xp.r         ).3.&   i 1.+.@.x D oX_ Z.Y.:X;X",
"V.<.V.>XP.cXwXs j j V C   #.C ,         ).T.Z         `.q.y         }.r.y         .Xr.m         ).H =   9 l g x.BXcXnXF.c >.>.>.",
">.O.X.fXC.N.J.hXwXg.d 6   2.F #         XX4.m         }.9.n         /.7.N         ^.T.Z         T.H e   & g dXkX#XP.J.N.:.x L X.",
"X X X zXK.K.#X$XP.jX2     5.F 4         }.4.m         `.e.4         @Xd.r         /.e.v         p.3.*     d eXN.oXc.oXI.&.X X X ",
"X.V.V.gXC.C.G.#Xm.&.d #.y.#.F - ( w._.4X}.i.v p.~.=X8X}.9.4 r.`.=X9X/.) 3 7.`.=X5X'.| n q.v.].*Xp.3.3 S ) 6 eXj.j.N.oXF.a.x x x ",
"V.:XrXxXx.x.U.#Xg.m.d -.*.|.A y.A.v.R.T.yX$..X^.}..XL.iX8..X{.^././.iX( @X@X/.(./.9Xq..X'.E.E.f.&X#.v.d.d.6 jXj.N.OXx.G.o.X.X.>.",
"V.0XMXBXK.G.|.G.G.m.e V A S @ A ~ G ` [ $.$ e.[ 9.8.y.$.e 9.r.r.} } q.2 7.} ....7.w.- 5.| r.` ! $.# ( P P 6 dXa.a.oXx.k.=.:Xx >.",
"V.mXrXvXg.x.t.=.A.H.2 @ @ $ l e $ < # & n 4.m v B e i r u.B n v v v F 5.m J r J i N p.J r e e < & H r < 2 g hX#Xk.z.z.:.+.;Xx O.",
"V.MXrXzX=.@.P.,.t.*.A     @.g @         ).} b         }.6.3         !.4.m          Xp.m         ).H <     f pXZ.s.$X:.a.%.<.x X.",
"V.mX0XzX=.=.P.R h.V d     ;.Y ;         !.} m         `.6.1         {.6.J         .X4.m         p.{ <     j 7Xc.s.K.L %.o.<.x X.",
"V.mX0Xz f U V g d g g     0.g >         (.4.n         !.| 1         {.e.p         ^.[ v         p.{ 1     j 6 5 a 0 a a f >.x X.",
"V.MXrXzXgXbXdXgXcXm.s     *.P -         XX{ m         ~.6.,         `.5.p         ^.[ b         p.{ ,     2 aXnXzXjXsXvX,.>.x x ",
"V.mXrXbXK.Y.A.3Xm.t.C *.d.*.P O Q ) b.*XB.2.4 ] b.+X6X[.7.4 7.b.@X-X[.5.< #.n.=X5X{.] b q.v.'.&Xi.! , V ( 6 kXoXoXF.I.OX:.>.x x ",
"V.mX0XlXL.k.m.A.m.x.2 W Y B.C d.b.d.f.d.7X&.~./.~.'.H.pX*.+X@X'./.~.wXE [.XX^.(.'.uX8.[.~.f.E.f.&X~ 8.5.w.L uXw.a.oX#XK.>.X X x ",
"V.MXrXfXA.A.A.H.m.j.2 6 s j . N W I I I ,.:  . .( q.t.&.: 5. .' ' ' #.2 6.[ } .. .*.- / I ` ' I #.@ Y C C 6 kXoXF.oXI.P.s.x x x ",
"V.mXrXzX:.A.K.y.-.t.2 - O @ g 2 7 - - r r 2.b n i i l g t.e i y v d b ' n m r i n y 8.y 6 3 , - r #., # + t gXm.oXz.z.z.%.Y.x O.",
"V.mX0XlXg.,.=.k.|.|.g     E i @         `.{ *          X-.p         W.[ B         ].6.1         v.G %     d xX#Xz.a.F.a.E OXx O.",
"V.lXrXfXg.@.A.t.L.A.t     $.R ;         (.} B         `.8.n         ~...n         ~.{ 3         i.! <     g iXz.%.F._ z.:.V.X O.",
"V.MXrXeX-.@.t.l.H.E h     #.l $         (.} m         `.6.r         ~...m         W.{ b         p.Z ,     u 2Xt.a.:._ a.%.>.X O.",
"Z.rXrXf f 0 s d V h g     =.S @         ).{ n         !.6.4         '. .d         (.[ 3         9.G ,     u S s : a 5 L f >.x x ",
"O.lX;XhXfXhXhXcXpX-.h @.y.@.g ; U ;.b.&Xn.{ 4 r.b.'.4X'.2.n 6.n.}.=X~.) v 5.~.@X-XW.! 1 8.y.L.&Xi.~ % S @.D gXzXhXjXfXsX%.>.X x ",
"X.rX0XhXx.#X+X|.x.=.u S E A.A R -.0.f. .6X@.Q.E.~._. XiX8.).XX(.(.R.iX0.Q./.(.E.@XuX*.L.M.q.b.v.,X@.y.y.$.g dXg.G.I.J.I.L >.x x ",
"X.Y.Y.cXk.%XG.H.|.=.u u l A > l A S Z I ,.> /  .! #.$.-.< ] 6...} ' 5.+  .' ` ` ` ) ; #.( ' ] ! $.$ D D D l dXx.G.s.I.I.E >.X x ",
"X.x X fXG.G.N.G.H.G.q o > @ N t 9 9 8 y p ~ r y < r r y 2.J y i r v n 3.M M 3 C n y 2.r < < , < 8 F ; 9 ; u hXH.G.#XG.G.+.>.w x ",
">.>.>.zXg.#XN.z.;.l.u     @.A $         p.#.p         n.2.n         Q.] M         ].3.<         u.H ;     u dXm.l.J.G.s.T >.X x ",
"O.O.X.wXN.oXh.g.#Xx.u     S g 9         p.3.J         _.6.n         !. .1         S.6.m         9.~ ;     u wXN.c.g.x.,.T >.X x ",
"X.Y.0XjX;.;.x.;.x.t.q     $.t 9         p.3.p         _./ M         b.] y         n.] n         9.H ;     u hXj.;.C.W z.=.O.X x ",
"X.0XlXjX;.%.g.&.G.U 0     R g @         u.#.p         A.2.y         b. .g         m.3.3         i.B 9     u 7XN.:.C.E =.T X x x ",
"X.0XvXL h h h s s > q     S.E $         4Xn.g         8XS.s         8Xb.e         8Xn.B         ,X5.;     u j 5 s f j s z X x L ",
"X.0XmX7XwXaXaXdXpXC.k       A.            4X            8X            8X            7X            &X      A dXwXeXeXrXqXc x X.O.",
"X.0XmX7Xx._ g.h.l.z.f                                                                                     z wX;.s.:.,.C.f X.O.>.",
"X.0XlXqX;.-.=.l.z.,.L                                                                                     a rX:.,.s.X.z.c >.>.>.",
"X.0XlX7X=.&.&.;.;.=.z                                                                                     f 1X%.s.:.:.%.f O.X.>.",
"X.0X;X2XE o.E E o.@.f                                                                                     z 7X:.s.,.:.L 0 1XX >.",
"X.:XV.<Xz o.T z U +.f                                                                                     L qXX.o.%.X.+.q >.X >.",
"X.x X :XT z U f z E q                                                                                     k :XL f L L x w >.X >.",
">.O.x >Xf q x t f z q                                                                                     q >XL 0 c k c w >.X >.",
">.>.O.c q f z f f f k                                                                                     k k k f k q k w X X >.",
"x x x x q g z z x l c                                                                                     k k k q f f x q x x x "
};
