/* XPM */
static char *result[] = {
/* columns rows colors chars-per-pixel */
"64 64 136 2 ",
"   c #000000",
".  c gray12",
"X  c #27261F",
"o  c #2C2C1C",
"O  c #2F301D",
"+  c #30311E",
"@  c #262420",
"#  c #282622",
"$  c #2E2D24",
"%  c #2F2D2A",
"&  c #312E25",
"*  c #302F2A",
"=  c #323224",
"-  c #383A23",
";  c #35332C",
":  c #39372E",
">  c #3A3A2C",
",  c #373531",
"<  c #383732",
"1  c #373831",
"2  c #3C3A33",
"3  c #3B3B3B",
"4  c #403D32",
"5  c #403F3A",
"6  c #3F412A",
"7  c #3F4030",
"8  c #434335",
"9  c #45433C",
"0  c #4B4C3C",
"q  c gray28",
"w  c #4B4A42",
"e  c #4A4748",
"r  c #4D4D4D",
"t  c #514E44",
"y  c #504E49",
"u  c #535345",
"i  c #595A46",
"p  c #55544B",
"a  c #59574D",
"s  c #5B5B4C",
"d  c #555555",
"f  c #585751",
"g  c #575851",
"h  c #5D5C52",
"j  c #5F5F5F",
"k  c #605F54",
"l  c #605E5A",
"z  c #61634D",
"x  c #636355",
"c  c #676851",
"v  c #6A6B56",
"b  c #65645A",
"n  c #68675D",
"m  c #66685E",
"M  c #6C6C5D",
"N  c #6E7056",
"B  c #6F7159",
"V  c #71735A",
"C  c #676767",
"Z  c #686760",
"A  c #6E6D62",
"S  c #6B6B6B",
"D  c #716E65",
"F  c #706F69",
"G  c #737364",
"H  c #777865",
"J  c #7A7B66",
"K  c #757469",
"L  c #79756B",
"P  c #7B7B6C",
"I  c #737373",
"U  c #787771",
"Y  c #7E7D72",
"T  c #7B7B7B",
"R  c #817E72",
"E  c #7F806C",
"W  c #7F8070",
"Q  c #82826E",
"!  c #838374",
"~  c #888677",
"^  c #888876",
"/  c #858579",
"(  c #88877B",
")  c #8A8A7C",
"_  c #90907E",
"`  c #838383",
"'  c #8C8C82",
"]  c gray56",
"[  c #908E8A",
"{  c #939386",
"}  c #97968D",
"|  c #979591",
" . c #999793",
".. c #9E9E90",
"X. c #9B9B9B",
"o. c #A19F9B",
"O. c #A6A694",
"+. c #A5A499",
"@. c #ACAC9E",
"#. c #A8A7A0",
"$. c #AAAAA1",
"%. c gray67",
"&. c #B3B3A5",
"*. c #BABBA4",
"=. c #B5B5AB",
"-. c #B9B6AA",
";. c #BCBBAC",
":. c #B7B7B7",
">. c #BEBDB3",
",. c #C2C3AD",
"<. c #C3C3B4",
"1. c #C9C9B5",
"2. c #C5C4BB",
"3. c #C8C7BA",
"4. c #CBCBBC",
"5. c #CDD0B4",
"6. c #D0D2B6",
"7. c #D3D4BD",
"8. c #C7C7C7",
"9. c #CDCCC1",
"0. c #D1CFC2",
"q. c #D0CEC8",
"w. c #D3D3C4",
"e. c #D9DBC4",
"r. c #D5D4CA",
"t. c #DADACC",
"y. c LightGray",
"u. c #DDDCD2",
"i. c #DFDFDF",
"p. c #E2E2D4",
"a. c #E9EBD2",
"s. c #E5E4DA",
"d. c #EAEADD",
"f. c #EDEDE0",
"g. c #EFEFEF",
"h. c #F5F5E7",
/* pixels */
". 3 . 3 @ 3 . 3 . 3 . 3 . 3 . 3 . 3 . 3 . 3 . 3 . 3 . 3 . 3 . 3 . 3 . 7 . 3 . 3 . 3 . 3 . 3 . 3 . 3 . 3 . 3 . 3 . 3 . 7 . 3 . 3 ",
"d d d r d r d r j r r y.i.i.i.y.i.y.i.i.i.y.i.y.i.i.i.. s A z A i i ' ) 8.y.:.8.%.` d @ q q q q q q q q q q d r d r d r j r d r ",
"d d d d d d r d d r q i.y.8.y.:.y.y.y.8.y.y.:.y.y.p 8 K 0.p.f.h.>.;.;.<.P E ' T %.r 3 . 3 S ] ] ` ] ] ] T S C q q q r q q q r q ",
"] ] ` ] ] ] ` ] . d r i.8.8.:.y.:.8.8.:.8.8.< r Z x 9.w.P K { ( Z A h b 9.t.r.F $ : 3 . 3 ] y.i.i.i.y.i.:.:.%.] ` ] ] ] ` ] ] ] ",
"y.y.y.y.:.%.| ` . j q i.y.%.%.X.%.] %.%.S x } ; K <.A G K H P Y b G M A k W m >.> d.u.u.> ` i.i.:.8.:.y.i.i.i.y.i.y.8.y.y.y.8.y.",
"%.%.%.%.X.%.T I . r q g.:.X.%.%.%.%.w y ! p.d.Y $ K ! E J H K W B A A G h B A * >.r./ ) t.4.$ :.%.] %.] %.%.X.] ] %.] %.` %.] X.",
":.X.X.X.%.] T S . q q g.y.%.` %.e p U 9.u.Y J =.= J W E P L x / A E G M K i x ; >.W G K B m <.t ] %.` X.` ] ] %.` ] X.] %.X.] X.",
":.%.` :.` X.j d . 3 q g.8.] X., A q.t.J W B ^ v <.= A G K P P P W h A x b h = 3.>.B H P J P B 1.= ` X.T %.X.T ] %.` %.%.] T %.X.",
"X.%.%.] X.I q e . . e 8.:.u g M = 3.P P G M J G t.- 2 f Z b S b Z Z k a b = * >.s A G ! D D G = x W ` ` X.I X.] %.] ] T %.%.I ] ",
"] ] ` ] I d q q . 3 q %.s / t.;.+ P Q ! K c P L M >., f S , 3 ; < 1 $ b h & h 4.G P n L K K W X v w.b ] X.X.X.` ] %.] %.%.` %.] ",
"I S I I r r 3 3 . . r u G 9.t.M P > A ! K V A x b >.; , 2             ; ; * p >.( ! b A L A 2 S 9.W t.u ] ` ] I S C j j C j C j ",
"d d q q q . . . . 3 q b 0.K P W n : h L A A x b 2 #                         ; 2 Y Z G A K k : r.F P / w.w d d d d q r q r q q r ",
". . . . . 3 . 3 X 2 b 4.W K Y G D L & D n n 2 ,                                 , 2 G b U ; u.K A H K K 3.7 3 3 3 3 3 . 3 . 3 . ",
". 3 . 3 . . 3 . q a 4.M K D A A F U 4 h , 2                                         3 : h ' >.L L P E A F t.w . . . . . . . . . ",
"3 3 3 3 3 3 3 3 5 @.w.K D A U L D l L <                                                 ; A U A K h K H A K 2.3 3 3 3 3 3 3 3 3 ",
"d q 3 3 3 3 3 : , b k s M K F L S Z <                                                     , Z b A G A A b K 8., q q q q q q q 3 ",
"X.X.] X.] X.9 w.; > i M G m K C j $                                                         ; A m m m b p t 7 1 p X.X.] X.X.X.X.",
"y.8.y.y.8.y.8 4.>.G o > b u f A 3                                                             , A m m g > ( t.y.p y.i.i.i.y.i.y.",
"%.X.] %.] %.0 <.K 9.H ^ = u p <                                                                 1 d h 7 u.9.Z A 9.y :.:.%.:.:.:.",
"%.] X.] %.s 1.H G b 4.p.K > :                                                                     < 7 w.( P / D 8.9 %.] X.` X.X.",
"%.] ] %.` s ;.B G M v H w.;                                                                         2 G P A W F 9.m ] X.I ` ] ` ",
"%.] %.] %.3.! J K M H P n ;                                                                         $ b U P W A Y s.q ] X.` X.X.",
"] %.I T g t._ ^ K A Q E 6                                                                             ; A P D x K r.f X.T T ] ] ",
"] ` ` T t 4.! P K k b P 2                                                                             $ C D b b b K 9.w T T ] ] ",
"] ] %.%.1 K A K b g A h 2                                                                             ; m n a h m A <.8 %.} %.] ",
"X.%.` ] 8., % ; p w S <                                                                                 , g w p 8 > J 0 S T ] ` ",
"C j C ' W q.>.= ; ; 2 2                                                                                 # : : Z d.w.t.M q d d d ",
"r r q 4.A K P 3.<.x ; *                                                                                 @ ; >.r.^ P E G . 3 3 q ",
". . . 4.G E Q Q v <.$                                                                                     2 &.A K v ! K . . . . ",
"q C C w.N c H N v z $                                                                                     , =.A G V P K d 3 3 3 ",
"C ] :.7.c H E Q v v :                                                                                     , 9.A G ! V K r q q r ",
"C %.y.a.B N E V B G :                                                                                     2 >.i h P A Z i.] 3 d ",
"C i.:.7.z c s i M Z :                                                                                     , 4.J c v M x ` ` 3 r ",
"C y.:.1.i 0 G k n p ,                                                                                     2 <.V v P w i ] j 3 q ",
"C i.%.<.i i G u C 9 ,                                                                                     , O.z z H 0 i %.j 3 q ",
"C i.%.= 6 > : : , ; ,                                                                                     : - - O = = > X.d 3 q ",
"C y.:.5.,.e.5.4.9.m ,                                                                                     , ;.7.e.1.4.9.%.d 3 3 ",
"C i.:.6.V J J ) L h ,                                                                                     2 1.E ! M K / d d 3 3 ",
"C f.%.e.P z M D C b ,                                                                                     , ;.z x J W A . . . 3 ",
"C y.:.1.G B G K h b ,                                                                                     , w.G H L P ! 3 3 3 3 ",
"C i.:.5.s M G g h S ;                                                                                     , w.B H v A m T I 3 r ",
"C i.%.7.c z u s L U ;                                                                                     : w.P x b v k 8.T 7 r ",
"C 8.:.,.i 0 B b Y F ;                                                                                     ; ;.c i P 0 v ] C . r ",
"C y.:.&.0 0 m x L t ;                                                                                     , ..s s x 0 z T j . r ",
"C :.:.8 6 = = o : ; *                                                                                     < : o $ O + - S j 3 3 ",
"r 8./ ,.,.6.9.w.;.f ;                                                                                     3 4.w.3.4.9.3.S r . 3 ",
"q :.%.,.G P R ! K a :                                                                                     < <.g H A P G S d 3 3 ",
"q T T 4.v Q K K P f ;                                                                                     < 4.B m x K K I r . 3 ",
"q 3 . <.R R R R n n &                                                                                     < 4.K G / G H S d . 3 ",
"d d d w.M R z z a b 4                                                                                     < <.A v L A x S d . 3 ",
"q r q ,.N R x k R n 4                                                                                     , *.G b x M z S d . 3 ",
"q T %.;.a t R k n a &                                                                                     , 3.n i A 0 b S r . 3 ",
"q %.8.<.s p a t D 9 ;                                                                                     , @.M g G 8 u d . 3 3 ",
"q %.y.> 4 4 o 4 = & ;                                                                                     , ; o - > = = . . 3 7 ",
"q %.i.-.;.3.4.3.3.D ,                                                                                     < >.-.&.;.;.@.3 3 q r ",
"q %.i.&.l k l M l n 2                                                                                     < &.i h g h A 3 q r d ",
"e %.8.+.h p a b n k ,                                                                                     ; >.s k k u A r d d d ",
"e %.8.o.p t w a a t 2                                                                                     , +.u h h g r T r q r ",
"q %.` | q t 9 w w 0 <                                                                                     3 +.u h h g 9 y.X.. d ",
"q ] C [ 9 w w 9 5 t ,                                                                                     5 +.0 9 t q 9 %.d . d ",
"q 3 .  .5 , 9 , 5 9 $                                                                                     < { 2 ; 3 < 3 ] r @ d ",
"d e 3 ] * $ 5 ; , , &                                                                                     ; [ 8 $ , , , r d . d ",
"d d r : * : : : , ; 2                                                                                     ; 2 = ; 2 % , . . . d ",
"3 3 3 3 , ; , 2 3 : 8                                                                                     , > = $ ; , 3 3 3 3 3 "
};
